<svg xmlns="http://www.w3.org/2000/svg" viewBox="0 0 900 1200">
<defs>
<filter id="b6">
<feGaussianBlur stdDeviation="6"/>
</filter>
<filter id="b12">
<feGaussianBlur stdDeviation="12"/>
</filter>
<filter id="b20">
<feGaussianBlur stdDeviation="20"/>
</filter>
<linearGradient id="soft" x1="0" y1="0" x2="0" y2="1">
<stop offset="0" stop-color="#ffffff" stop-opacity="0.5"/>
<stop offset="1" stop-color="#ffffff" stop-opacity="0"/>
</linearGradient>
</defs>
<defs>
</defs>
<rect width="900" height="1200" fill="#E8E5E0"/>
<rect x="0" y="740" width="900" height="50" fill="#D7D2CA"/>
<rect x="0" y="790" width="900" height="410" fill="#DFDBD4"/>
<ellipse cx="580" cy="746.9" rx="63.2" ry="10.3" fill="#26282B" opacity="0.2" filter="url(#b12)"/>
<path d="M 547.8 740 C 520.2 705.5 536.3 638.8 563.9 625 L 567.4 597.4 L 592.6 597.4 L 596.1 625 C 623.7 638.8 639.8 705.5 612.2 740 Z" fill="#DDD8CF"/>
<ellipse cx="340" cy="750.2" rx="93.5" ry="15.3" fill="#26282B" opacity="0.2" filter="url(#b12)"/>
<path d="M 292.4 740 C 251.6 689 275.4 590.4 316.2 570 L 321.3 529.2 L 358.7 529.2 L 363.8 570 C 404.6 590.4 428.4 689 387.6 740 Z" fill="#F6F5F2"/>
<g transform="rotate(-14 329.8 529.2)">
<line x1="329.8" y1="529.2" x2="329.8" y2="386.4" stroke="#B5A488" stroke-width="5.1"/>
<ellipse cx="329.8" cy="379.6" rx="11.9" ry="23.8" fill="#C7B69C"/>
</g>
<g transform="rotate(4 343.4 529.2)">
<line x1="343.4" y1="529.2" x2="343.4" y2="386.4" stroke="#B5A488" stroke-width="5.1"/>
<ellipse cx="343.4" cy="379.6" rx="11.9" ry="23.8" fill="#C7B69C"/>
</g>
<g transform="rotate(18 355.3 529.2)">
<line x1="355.3" y1="529.2" x2="355.3" y2="386.4" stroke="#B5A488" stroke-width="5.1"/>
<ellipse cx="355.3" cy="379.6" rx="11.9" ry="23.8" fill="#C7B69C"/>
</g>
</svg>