<svg xmlns="http://www.w3.org/2000/svg" viewBox="0 0 900 1200">
<defs>
<filter id="b6"><feGaussianBlur stdDeviation="6"/></filter>
<filter id="b12"><feGaussianBlur stdDeviation="12"/></filter>
<filter id="b20"><feGaussianBlur stdDeviation="20"/></filter>
<filter id="grain"><feTurbulence type="fractalNoise" baseFrequency="0.8" numOctaves="2" result="n"/>
<feColorMatrix in="n" type="matrix" values="0 0 0 0 0.1 0 0 0 0 0.1 0 0 0 0 0.1 0 0 0 0.04 0"/>
<feComposite operator="over" in2="SourceGraphic"/></filter>
<linearGradient id="soft" x1="0" y1="0" x2="0" y2="1">
<stop offset="0" stop-color="#ffffff" stop-opacity="0.5"/><stop offset="1" stop-color="#ffffff" stop-opacity="0"/>
</linearGradient>
</defs><defs></defs><rect width="900" height="1200" fill="#E8E5E0"/><rect x="0" y="820" width="900" height="380" fill="#D8D3CB"/><rect x="560" y="120" width="250" height="380" fill="#F0EDE7"/><rect x="560" y="120" width="250" height="380" fill="url(#soft)"/><ellipse cx="360" cy="1070" rx="330" ry="60" fill="#DFDACF"/><ellipse cx="720" cy="854.0" rx="55.0" ry="9.0" fill="#26282B" opacity="0.16" filter="url(#b12)"/><ellipse cx="720" cy="850" rx="44.0" ry="9.0" fill="#2B2D30"/><rect x="716.5" y="520.0" width="7.0" height="330.0" fill="#2B2D30"/><path d="M 664.0 520.0 L 776.0 520.0 L 764.0 425.0 L 676.0 425.0 Z" fill="#EDE8DC"/><path d="M 664.0 520.0 L 776.0 520.0 L 772.0 498.0 L 668.0 498.0 Z" fill="#DDD6C6"/><ellipse cx="345.0" cy="830.0" rx="244.4" ry="16.0" fill="#26282B" opacity="0.16" filter="url(#b12)"/><rect x="110" y="600" width="470" height="136.4" rx="22.0" fill="#B9B1A5" /><rect x="134.0" y="616.0" width="195.0" height="110.0" rx="18.0" fill="#C3BBB0" /><rect x="345.0" y="616.0" width="195.0" height="110.0" rx="18.0" fill="#C3BBB0" /><rect x="90.0" y="674.8" width="46.0" height="123.20000000000002" rx="20.0" fill="#B9B1A5" /><rect x="554.0" y="674.8" width="46.0" height="123.20000000000002" rx="20.0" fill="#B9B1A5" /><rect x="118.0" y="727.6" width="454.0" height="66.0" rx="16.0" fill="#A89F93" /><rect x="140.0" y="793.6" width="10.0" height="30.800000000000004" rx="4.0" fill="#8B857B" /><rect x="542.0" y="793.6" width="10.0" height="30.800000000000004" rx="4.0" fill="#8B857B" /><ellipse cx="770" cy="1066.0" rx="80.0" ry="10.0" fill="#26282B" opacity="0.16" filter="url(#b12)"/><line x1="718.0" y1="964.0" x2="732.56" y2="1060" stroke="#B2966F" stroke-width="9.0" stroke-linecap="round"/><line x1="822.0" y1="964.0" x2="807.44" y2="1060" stroke="#B2966F" stroke-width="9.0" stroke-linecap="round"/><ellipse cx="770" cy="960.0" rx="86.0" ry="20.0" fill="#C4A87F"/><ellipse cx="770" cy="956.0" rx="86.0" ry="18.0" fill="#C4A87F"/><ellipse cx="770" cy="954.0" rx="80.0" ry="15.0" fill="url(#soft)"/><ellipse cx="770" cy="953.3" rx="30.250000000000004" ry="4.95" fill="#26282B" opacity="0.16" filter="url(#b12)"/><path d="M 754.6 950 C 741.4 933.5 749.1 901.6 762.3 895.0 L 763.95 881.8 L 776.05 881.8 L 777.7 895.0 C 790.9 901.6 798.6 933.5 785.4 950 Z" fill="#F6F5F2"/><rect width="900" height="1200" filter="url(#grain)" opacity="0.5" fill="none" pointer-events="none"/></svg>